<svg xmlns="http://www.w3.org/2000/svg" viewBox="0 0 64 64">
  <defs>
    <linearGradient id="body" x1="8" y1="10" x2="58" y2="56" gradientUnits="userSpaceOnUse">
      <stop offset="0" stop-color="#21d4f3"/>
      <stop offset="0.48" stop-color="#1e88e5"/>
      <stop offset="1" stop-color="#0d3d7a"/>
    </linearGradient>
    <linearGradient id="fin" x1="4" y1="20" x2="24" y2="44" gradientUnits="userSpaceOnUse">
      <stop offset="0" stop-color="#66f0ff"/>
      <stop offset="1" stop-color="#1e88e5"/>
    </linearGradient>
  </defs>
  <rect width="64" height="64" rx="14" fill="#eef6ff"/>
  <path d="M17 32 5 21c3 8 3 14 0 22l12-11Z" fill="url(#fin)"/>
  <path d="M25 21c6-8 14-8 22 0-7-1-14-1-22 0Z" fill="#39d9ef" opacity=".8"/>
  <ellipse cx="35" cy="33" rx="23" ry="15" fill="url(#body)"/>
  <circle cx="50" cy="29" r="5.2" fill="#071221"/>
  <circle cx="50" cy="29" r="2.6" fill="#3ee7ff"/>
  <circle cx="51" cy="28" r="1" fill="#fff"/>
  <path d="M24 32h16M32 32v-7h10" fill="none" stroke="#9ff7ff" stroke-width="2.2" stroke-linecap="round" stroke-linejoin="round" opacity=".9"/>
  <circle cx="24" cy="32" r="2.7" fill="#9ff7ff"/>
  <circle cx="42" cy="25" r="2.7" fill="#9ff7ff"/>
</svg>
